# xmcd
#
# Track frame offsets:
#	150
#	12808
#	28479
#	49648
#	65720
#	82701
#	103605
#	128602
#	142263
#	160699
#	176352
#
# Disc length: 2565 seconds
#
# Revision: 0
# Processed by: cddbd v1.5.1PL0 Copyright (c) Steve Scherf et al.
# Submitted via: dBpowerAMP V4.0
#
DISCID=890a030b
DTITLE=Brazilian Blues Band - Rapadura com Bourbon
DYEAR=2004
DGENRE=Blues
TTITLE0=Cachaça, fumaça e rock'n and roll
TTITLE1=Rapadura com bourbon
TTITLE2=um gigante
TTITLE3=variações lights (o assalto)
TTITLE4=harlem blues
TTITLE5=asa branca
TTITLE6=feeling
TTITLE7=agora eu sei
TTITLE8=poeira nos olhos
TTITLE9=eu encho a cara
TTITLE10=beco da cidade
EXTD=
EXTT0=
EXTT1=
EXTT2=
EXTT3=
EXTT4=
EXTT5=
EXTT6=
EXTT7=
EXTT8=
EXTT9=
EXTT10=
PLAYORDER=
